# xmcd
#
# Track frame offsets: 
#        182
#        13495
#        30532
#        42292
#        54392
#        68337
#        78410
#        90922
#        102900
#        114022
#        123790
#        137932
#
# Disc length: 1992 seconds
#
# Revision: 5
# Processed by: cddbd v1.5.2PL0 Copyright (c) Steve Scherf et al.
# Submitted via: ExactAudioCopy v0.99pb5
#
DISCID=8b07c60c
DTITLE=Various Artist - COUNTRY AND WESTERN - VOLUME FOUR
DYEAR=1987
DGENRE=Country
TTITLE0=KENNY ROGERS - Ruby, Don´t Take Your Love To Town
TTITLE1=LYN ANDERSON - Blue Bayou
TTITLE2=DOLLY PARTON - Makin´ Believe
TTITLE3=WAYLON JENNINGS - Don´t Think Twice
TTITLE4=JOHNNY PAYCHECK - I Feel Like Crying
TTITLE5=WILLIE NELSON - I Didn´t Sleep A Wink
TTITLE6=BILLY JO SPEARS - Sunshine
TTITLE7=FARON YOUNG - Is It Really Over
TTITLE8=HANK LOCKLIN - Send Me The Pillow You Dream On
TTITLE9=DAVE DUDLEY - Six Days On The Road
TTITLE10=WILLIE NELSON - So Much To Do
TTITLE11=JOHNNY PAYCHECK - Take This Job And Shove It
EXTD=YEAR: 1987
EXTT0=
EXTT1=
EXTT2=
EXTT3=
EXTT4=
EXTT5=
EXTT6=
EXTT7=
EXTT8=
EXTT9=
EXTT10=
EXTT11=
PLAYORDER=
